<?xml version="1.0" standalone="no"?>
<!DOCTYPE svg PUBLIC "-//W3C//DTD SVG 20010904//EN"
 "http://www.w3.org/TR/2001/REC-SVG-20010904/DTD/svg10.dtd">
<svg version="1.0" xmlns="http://www.w3.org/2000/svg"
 width="180.000000pt" height="180.000000pt" viewBox="0 0 180.000000 180.000000"
 preserveAspectRatio="xMidYMid meet">
<metadata>
Created by potrace 1.14, written by Peter Selinger 2001-2017
</metadata>
<g transform="translate(0.000000,180.000000) scale(0.100000,-0.100000)"
fill="#ffffff" stroke="none">
<path d="M797 1684 c-4 -4 -96 -13 -186 -19 -100 -6 -184 -14 -226 -20 -16 -2
-61 -7 -100 -10 -86 -8 -100 -16 -115 -61 -19 -57 -5 -98 55 -160 91 -93 102
-124 105 -300 1 -71 4 -149 6 -174 7 -94 3 -431 -5 -452 -5 -13 -18 -32 -28
-43 -41 -44 -73 -93 -88 -135 -13 -38 -13 -46 -1 -65 8 -12 27 -27 43 -33 31
-12 273 -73 368 -92 93 -19 261 -16 330 5 70 22 135 79 135 118 0 37 -65 155
-106 190 -19 17 -34 36 -34 43 0 7 -5 14 -11 16 -23 8 1 80 36 114 52 49 105
62 192 49 39 -6 79 -10 90 -9 23 3 106 17 113 19 22 5 123 69 170 107 93 76
144 154 175 271 23 87 17 154 -25 280 -27 82 -40 106 -79 146 -54 56 -146 114
-227 141 -31 11 -62 25 -69 30 -7 6 -30 12 -51 15 -48 5 -88 13 -133 25 -28 8
-327 11 -334 4z m136 -348 c75 -33 123 -110 132 -213 5 -53 3 -61 -24 -91 -16
-17 -50 -42 -76 -53 -58 -25 -64 -19 -65 61 -1 30 -3 112 -6 183 -3 70 -3 127
0 127 4 0 21 -6 39 -14z"/>
</g>
</svg>
